<svg xmlns="http://www.w3.org/2000/svg" id="canvas" viewBox="274.732 353.921 1263.476 344.253"><path d="M 321.87,385.79 C 321.07 387.00, 320.99 388.11, 320.92 391.69 C 320.86 395.28, 321.35 397.75, 321.53 403.73 C 321.71 409.71, 321.86 413.69, 321.80 421.61 C 321.75 429.52, 321.63 434.35, 321.26 443.32 C 320.88 452.29, 320.55 457.28, 319.92 466.44 C 319.29 475.60, 318.86 480.42, 318.11 489.12 C 317.36 497.82, 316.93 502.22, 316.18 509.95 C 315.42 517.67, 315.06 521.43, 314.34 527.73 C 313.62 534.04, 313.29 536.90, 312.57 541.45 C 311.85 546.00, 311.03 547.73, 310.74 550.48 C 310.44 553.24, 310.76 553.96, 311.10 555.23 C 311.43 556.49, 311.98 556.55, 312.42 556.82 C 312.85 557.08, 313.25 556.59, 313.29 556.55 C 313.32 556.52, 312.54 556.53, 312.60 556.64 C 312.66 556.75, 313.02 557.29, 313.57 557.11 C 314.12 556.93, 314.72 556.94, 315.36 555.75 C 316.00 554.55, 316.45 553.90, 316.75 551.13 C 317.05 548.36, 316.67 546.50, 316.86 541.88 C 317.06 537.26, 317.28 534.38, 317.72 528.05 C 318.16 521.71, 318.46 517.94, 319.08 510.20 C 319.69 502.46, 320.09 498.06, 320.80 489.34 C 321.50 480.63, 321.93 475.81, 322.61 466.64 C 323.29 457.46, 323.64 452.46, 324.19 443.47 C 324.74 434.48, 324.98 429.65, 325.35 421.70 C 325.72 413.76, 325.83 409.77, 326.04 403.74 C 326.25 397.72, 326.63 395.19, 326.41 391.57 C 326.18 387.95, 325.81 386.81, 324.91 385.65 C 324.00 384.49, 322.67 384.58, 321.87 385.79" style="stroke: black; fill: black;"/><path d="M 295.83,404.09 C 296.87 403.61, 296.99 402.97, 297.83 401.52 C 298.68 400.07, 298.91 399.28, 300.06 396.82 C 301.20 394.36, 301.30 392.47, 303.57 389.23 C 305.83 385.99, 307.61 384.01, 311.38 380.62 C 315.16 377.22, 317.63 375.26, 322.44 372.27 C 327.26 369.29, 330.14 367.74, 335.45 365.68 C 340.76 363.62, 343.78 362.78, 348.98 361.98 C 354.17 361.17, 356.93 361.15, 361.43 361.65 C 365.93 362.16, 368.10 362.87, 371.48 364.51 C 374.87 366.15, 376.30 367.21, 378.35 369.83 C 380.41 372.45, 381.19 373.90, 381.76 377.62 C 382.32 381.35, 382.33 383.56, 381.18 388.46 C 380.02 393.35, 378.83 396.35, 375.99 402.10 C 373.15 407.86, 370.97 411.27, 366.97 417.23 C 362.98 423.19, 360.32 426.45, 356.02 431.90 C 351.72 437.36, 349.19 440.07, 345.46 444.51 C 341.73 448.96, 339.75 450.74, 337.38 454.13 C 335.00 457.53, 334.01 458.79, 333.61 461.50 C 333.21 464.20, 333.82 465.56, 335.37 467.64 C 336.92 469.72, 338.32 470.73, 341.37 471.89 C 344.43 473.05, 346.58 472.73, 350.64 473.45 C 354.71 474.17, 357.18 474.31, 361.69 475.47 C 366.20 476.63, 368.77 477.26, 373.18 479.27 C 377.59 481.28, 379.92 482.52, 383.74 485.54 C 387.56 488.56, 389.43 490.39, 392.28 494.37 C 395.13 498.36, 396.37 500.64, 397.97 505.47 C 399.57 510.30, 400.08 513.05, 400.28 518.51 C 400.47 523.98, 400.20 527.03, 398.95 532.80 C 397.70 538.57, 396.62 541.70, 394.03 547.37 C 391.43 553.04, 389.68 555.99, 385.99 561.16 C 382.30 566.32, 380.13 568.82, 375.60 573.19 C 371.06 577.57, 368.46 579.59, 363.31 583.02 C 358.16 586.45, 355.30 587.98, 349.84 590.34 C 344.38 592.70, 341.48 593.61, 336.00 594.83 C 330.53 596.05, 327.64 596.36, 322.46 596.44 C 317.29 596.52, 314.69 596.25, 310.11 595.23 C 305.53 594.22, 303.28 593.38, 299.57 591.36 C 295.86 589.34, 294.20 588.06, 291.58 585.12 C 288.96 582.17, 288.01 579.97, 286.48 576.63 C 284.95 573.29, 284.93 571.22, 283.94 568.40 C 282.95 565.58, 282.62 563.62, 281.55 562.53 C 280.47 561.44, 279.28 561.47, 278.57 562.95 C 277.85 564.42, 277.44 566.64, 277.98 569.89 C 278.52 573.14, 279.28 575.46, 281.25 579.21 C 283.22 582.96, 284.60 585.38, 287.82 588.65 C 291.05 591.92, 293.08 593.37, 297.36 595.56 C 301.63 597.74, 304.16 598.57, 309.20 599.57 C 314.24 600.58, 317.03 600.76, 322.57 600.57 C 328.10 600.38, 331.12 600.00, 336.88 598.63 C 342.63 597.27, 345.65 596.28, 351.34 593.76 C 357.02 591.24, 359.97 589.63, 365.32 586.03 C 370.67 582.44, 373.36 580.33, 378.08 575.78 C 382.81 571.22, 385.07 568.64, 388.93 563.27 C 392.80 557.90, 394.65 554.86, 397.41 548.93 C 400.17 543.00, 401.36 539.75, 402.74 533.64 C 404.13 527.53, 404.49 524.29, 404.35 518.39 C 404.20 512.50, 403.71 509.47, 402.01 504.16 C 400.32 498.85, 398.96 496.27, 395.88 491.84 C 392.80 487.40, 390.73 485.38, 386.62 481.98 C 382.50 478.59, 379.97 477.24, 375.30 474.87 C 370.64 472.51, 367.92 471.75, 363.28 470.16 C 358.65 468.58, 356.07 468.05, 352.12 466.95 C 348.17 465.84, 346.23 465.18, 343.53 464.63 C 340.84 464.08, 339.72 464.61, 338.66 464.20 C 337.60 463.78, 337.68 464.02, 338.23 462.55 C 338.78 461.09, 339.35 460.00, 341.41 456.88 C 343.48 453.77, 345.07 451.54, 348.55 446.99 C 352.04 442.43, 354.56 439.65, 358.84 434.10 C 363.12 428.56, 365.83 425.30, 369.96 419.25 C 374.09 413.21, 376.39 409.83, 379.50 403.88 C 382.60 397.94, 384.06 394.94, 385.50 389.55 C 386.94 384.15, 387.29 381.50, 386.68 376.92 C 386.06 372.35, 385.03 370.04, 382.42 366.66 C 379.80 363.29, 377.69 361.97, 373.58 360.07 C 369.47 358.17, 366.94 357.61, 361.88 357.16 C 356.83 356.71, 353.89 356.88, 348.31 357.80 C 342.72 358.73, 339.58 359.65, 333.96 361.79 C 328.33 363.92, 325.34 365.50, 320.17 368.48 C 315.01 371.47, 312.45 373.38, 308.14 376.72 C 303.83 380.05, 301.78 381.87, 298.64 385.14 C 295.51 388.42, 293.99 390.11, 292.46 393.08 C 290.93 396.05, 290.97 397.84, 291.01 400.01 C 291.05 402.17, 291.70 403.11, 292.67 403.92 C 293.63 404.74, 294.80 404.57, 295.83 404.09" style="stroke: black; fill: black;"/><path d="M 430.35,433.51 C 429.24 434.23, 428.24 434.86, 427.64 437.64 C 427.03 440.41, 427.49 442.31, 427.33 447.41 C 427.17 452.51, 427.11 455.95, 426.83 463.14 C 426.56 470.33, 426.38 474.91, 425.95 483.35 C 425.53 491.80, 425.22 496.78, 424.72 505.37 C 424.21 513.96, 423.89 518.63, 423.41 526.30 C 422.93 533.98, 422.69 537.76, 422.31 543.74 C 421.93 549.73, 421.49 552.38, 421.50 556.22 C 421.52 560.06, 421.90 561.12, 422.38 562.93 C 422.85 564.74, 423.31 564.84, 423.89 565.28 C 424.47 565.71, 424.82 565.63, 425.27 565.10 C 425.73 564.57, 425.96 564.42, 426.17 562.64 C 426.37 560.86, 426.35 559.93, 426.30 556.18 C 426.25 552.43, 425.88 549.81, 425.92 543.87 C 425.96 537.93, 426.14 534.13, 426.49 526.47 C 426.84 518.80, 427.15 514.13, 427.69 505.55 C 428.23 496.97, 428.56 491.98, 429.19 483.56 C 429.81 475.13, 430.13 470.54, 430.81 463.40 C 431.49 456.26, 431.90 452.84, 432.60 447.86 C 433.30 442.88, 434.18 441.27, 434.31 438.51 C 434.44 435.75, 434.02 435.06, 433.23 434.06 C 432.44 433.06, 431.47 432.80, 430.35 433.51" style="stroke: black; fill: black;"/><path d="M 436.23,387.14 C 436.99 385.90, 437.48 384.55, 437.18 384.10 C 436.88 383.65, 435.57 384.40, 434.72 384.88 C 433.87 385.35, 433.37 385.95, 432.93 386.45 C 432.48 386.96, 432.84 386.85, 432.48 387.40 C 432.12 387.94, 431.53 388.34, 431.11 389.18 C 430.70 390.01, 429.95 391.35, 430.41 391.58 C 430.87 391.81, 432.24 391.23, 433.40 390.34 C 434.56 389.46, 435.48 388.39, 436.23 387.14" style="stroke: black; fill: black;"/><path d="M 499.14,447.81 C 499.34 446.55, 499.13 445.52, 497.91 444.03 C 496.69 442.54, 495.63 441.33, 493.04 440.37 C 490.46 439.42, 488.39 438.71, 484.98 439.24 C 481.56 439.76, 479.68 440.64, 475.97 442.99 C 472.27 445.35, 470.28 446.80, 466.45 451.01 C 462.61 455.22, 460.45 457.91, 456.79 464.05 C 453.14 470.19, 451.13 474.18, 448.16 481.71 C 445.20 489.23, 443.74 493.82, 441.96 501.69 C 440.19 509.57, 439.60 514.00, 439.28 521.08 C 438.95 528.16, 439.18 531.62, 440.34 537.09 C 441.50 542.56, 442.49 544.90, 445.08 548.42 C 447.67 551.94, 449.59 553.32, 453.30 554.69 C 457.01 556.06, 459.43 556.13, 463.62 555.26 C 467.80 554.38, 470.14 553.25, 474.23 550.30 C 478.31 547.34, 480.39 545.28, 484.04 540.48 C 487.69 535.68, 489.49 532.66, 492.48 526.29 C 495.47 519.92, 496.87 515.99, 499.00 508.64 C 501.13 501.28, 501.96 496.92, 503.12 489.53 C 504.28 482.13, 504.54 478.14, 504.80 471.65 C 505.05 465.16, 504.83 462.09, 504.41 457.08 C 503.99 452.07, 503.64 449.93, 502.69 446.61 C 501.73 443.28, 500.81 442.21, 499.63 440.44 C 498.45 438.66, 497.74 438.34, 496.77 437.73 C 495.79 437.12, 495.31 437.34, 494.75 437.37 C 494.18 437.40, 494.22 437.63, 493.94 437.86 C 493.67 438.09, 493.55 438.19, 493.39 438.51 C 493.22 438.84, 493.11 439.00, 493.13 439.48 C 493.15 439.95, 493.14 440.14, 493.50 440.90 C 493.86 441.66, 494.14 441.79, 494.92 443.28 C 495.71 444.76, 496.36 445.46, 497.41 448.32 C 498.47 451.18, 499.45 452.94, 500.21 457.59 C 500.96 462.24, 501.29 465.27, 501.21 471.56 C 501.13 477.85, 500.91 481.79, 499.82 489.02 C 498.73 496.24, 497.89 500.55, 495.76 507.68 C 493.63 514.82, 492.17 518.66, 489.16 524.69 C 486.15 530.72, 484.26 533.53, 480.71 537.84 C 477.15 542.15, 475.03 543.80, 471.39 546.23 C 467.75 548.66, 465.78 549.26, 462.49 549.98 C 459.21 550.69, 457.75 550.66, 454.98 549.80 C 452.20 548.94, 450.82 548.41, 448.63 545.70 C 446.44 542.98, 445.23 541.15, 444.02 536.25 C 442.82 531.35, 442.40 527.98, 442.60 521.20 C 442.81 514.43, 443.32 510.04, 445.05 502.39 C 446.78 494.74, 448.24 490.21, 451.24 482.94 C 454.23 475.67, 456.31 471.78, 460.02 466.05 C 463.73 460.32, 466.02 457.82, 469.79 454.29 C 473.56 450.76, 475.70 449.72, 478.87 448.39 C 482.04 447.06, 483.38 447.55, 485.63 447.63 C 487.87 447.72, 488.49 448.31, 490.10 448.81 C 491.70 449.32, 492.29 449.85, 493.65 450.15 C 495.01 450.46, 495.79 450.81, 496.89 450.34 C 497.99 449.87, 498.93 449.08, 499.14 447.81" style="stroke: black; fill: black;"/><path d="M 605.24,377.83 C 604.77 376.56, 603.86 375.64, 601.85 374.72 C 599.84 373.80, 598.29 373.11, 595.19 373.23 C 592.10 373.36, 590.05 373.87, 586.37 375.33 C 582.69 376.78, 580.70 377.87, 576.81 380.52 C 572.92 383.17, 570.79 384.86, 566.92 388.59 C 563.04 392.32, 560.89 394.58, 557.44 399.18 C 553.98 403.78, 552.19 406.49, 549.65 411.59 C 547.11 416.69, 545.92 419.47, 544.74 424.67 C 543.56 429.87, 543.28 432.58, 543.74 437.59 C 544.20 442.60, 544.95 445.10, 547.02 449.74 C 549.09 454.38, 550.74 456.53, 554.08 460.77 C 557.43 465.02, 559.65 466.95, 563.75 470.96 C 567.84 474.98, 570.28 476.87, 574.56 480.85 C 578.85 484.82, 581.22 486.79, 585.18 490.85 C 589.14 494.91, 591.18 497.01, 594.36 501.15 C 597.54 505.30, 599.03 507.47, 601.08 511.57 C 603.13 515.67, 603.86 517.77, 604.62 521.65 C 605.39 525.54, 605.39 527.43, 604.89 531.00 C 604.39 534.57, 603.79 536.28, 602.14 539.52 C 600.49 542.75, 599.31 544.34, 596.64 547.19 C 593.96 550.04, 592.29 551.45, 588.76 553.76 C 585.23 556.08, 583.09 557.16, 578.98 558.78 C 574.87 560.40, 572.54 561.09, 568.22 561.87 C 563.91 562.64, 561.55 562.78, 557.41 562.65 C 553.27 562.51, 551.11 562.19, 547.52 561.20 C 543.94 560.20, 542.22 559.42, 539.50 557.67 C 536.78 555.92, 535.63 554.81, 533.92 552.45 C 532.21 550.10, 531.56 548.77, 530.94 545.92 C 530.33 543.06, 530.58 541.16, 530.84 538.19 C 531.09 535.22, 531.95 533.65, 532.22 531.09 C 532.48 528.52, 532.77 526.73, 532.17 525.37 C 531.58 524.01, 530.63 523.51, 529.25 524.28 C 527.86 525.06, 526.36 526.54, 525.23 529.24 C 524.11 531.93, 523.74 534.10, 523.61 537.77 C 523.47 541.43, 523.49 543.87, 524.56 547.56 C 525.64 551.25, 526.60 553.19, 528.97 556.21 C 531.34 559.23, 532.97 560.60, 536.40 562.67 C 539.83 564.73, 541.95 565.49, 546.12 566.53 C 550.30 567.58, 552.69 567.81, 557.29 567.88 C 561.89 567.95, 564.42 567.76, 569.13 566.90 C 573.85 566.04, 576.35 565.32, 580.85 563.58 C 585.35 561.84, 587.69 560.74, 591.64 558.21 C 595.59 555.68, 597.52 554.18, 600.60 550.93 C 603.67 547.68, 605.12 545.82, 607.03 541.96 C 608.93 538.11, 609.64 535.92, 610.12 531.66 C 610.61 527.39, 610.45 525.06, 609.45 520.63 C 608.45 516.20, 607.47 513.90, 605.12 509.48 C 602.78 505.07, 601.12 502.84, 597.72 498.53 C 594.32 494.23, 592.18 492.12, 588.11 487.97 C 584.04 483.83, 581.65 481.84, 577.37 477.83 C 573.10 473.83, 570.70 471.89, 566.74 467.94 C 562.78 463.98, 560.68 462.06, 557.55 458.05 C 554.43 454.04, 553.00 452.08, 551.12 447.90 C 549.25 443.73, 548.60 441.63, 548.18 437.18 C 547.76 432.72, 547.94 430.36, 549.01 425.64 C 550.08 420.91, 551.13 418.29, 553.53 413.54 C 555.94 408.80, 557.67 406.18, 561.01 401.92 C 564.35 397.65, 566.48 395.51, 570.25 392.21 C 574.01 388.91, 576.18 387.41, 579.83 385.41 C 583.48 383.41, 585.36 382.85, 588.49 382.21 C 591.62 381.58, 593.07 382.29, 595.48 382.24 C 597.88 382.18, 598.77 382.18, 600.51 381.95 C 602.26 381.72, 603.25 381.93, 604.20 381.10 C 605.14 380.28, 605.71 379.11, 605.24 377.83" style="stroke: black; fill: black;"/><path d="M 640.36,454.56 C 639.40 454.92, 638.79 455.03, 638.12 456.81 C 637.45 458.59, 637.29 459.66, 637.01 463.45 C 636.74 467.25, 637.06 469.89, 636.75 475.80 C 636.44 481.70, 636.11 485.61, 635.47 492.96 C 634.83 500.31, 634.28 504.90, 633.55 512.56 C 632.81 520.21, 632.32 524.43, 631.80 531.25 C 631.28 538.07, 631.04 541.36, 630.93 546.66 C 630.82 551.97, 630.54 554.23, 631.25 557.77 C 631.96 561.31, 632.66 562.70, 634.50 564.36 C 636.35 566.03, 637.99 566.56, 640.46 566.10 C 642.93 565.64, 644.61 564.87, 646.84 562.06 C 649.07 559.24, 649.57 556.97, 651.61 552.03 C 653.64 547.10, 654.71 543.89, 657.02 537.37 C 659.34 530.84, 660.69 526.57, 663.18 519.41 C 665.67 512.25, 667.07 507.98, 669.46 501.57 C 671.85 495.15, 673.16 491.86, 675.12 487.32 C 677.08 482.78, 678.52 481.14, 679.27 478.86 C 680.01 476.57, 679.27 475.69, 678.85 475.89 C 678.43 476.09, 677.32 476.93, 677.17 479.86 C 677.02 482.78, 677.79 485.28, 678.08 490.51 C 678.37 495.74, 678.47 499.38, 678.64 506.02 C 678.81 512.65, 678.77 516.88, 678.94 523.69 C 679.12 530.49, 679.16 534.21, 679.52 540.05 C 679.88 545.89, 680.06 548.53, 680.76 552.88 C 681.45 557.22, 681.56 559.14, 683.01 561.77 C 684.47 564.41, 685.80 565.29, 688.05 566.04 C 690.30 566.78, 692.01 566.83, 694.24 565.51 C 696.48 564.19, 697.52 562.95, 699.24 559.44 C 700.96 555.92, 701.29 553.52, 702.85 547.96 C 704.42 542.39, 705.28 538.79, 707.05 531.61 C 708.83 524.43, 709.88 519.85, 711.73 512.06 C 713.57 504.26, 714.55 499.75, 716.26 492.65 C 717.96 485.54, 718.81 482.00, 720.24 476.54 C 721.68 471.09, 722.40 468.94, 723.43 465.37 C 724.45 461.79, 725.01 460.70, 725.36 458.65 C 725.71 456.60, 725.33 456.12, 725.17 455.10 C 725.02 454.09, 724.97 453.96, 724.58 453.58 C 724.19 453.21, 723.74 453.08, 723.21 453.23 C 722.69 453.37, 722.55 453.49, 721.94 454.31 C 721.34 455.14, 720.84 455.38, 720.19 457.36 C 719.53 459.34, 719.39 460.55, 718.66 464.21 C 717.93 467.87, 717.67 470.14, 716.53 475.67 C 715.39 481.21, 714.58 484.76, 712.97 491.88 C 711.35 499.00, 710.36 503.51, 708.44 511.26 C 706.52 519.01, 705.40 523.58, 703.36 530.62 C 701.31 537.65, 700.22 541.24, 698.21 546.42 C 696.21 551.59, 694.85 553.53, 693.34 556.48 C 691.83 559.44, 691.40 560.04, 690.66 561.18 C 689.93 562.32, 690.15 562.57, 689.66 562.17 C 689.18 561.78, 689.08 561.25, 688.24 559.21 C 687.40 557.16, 686.39 555.84, 685.46 551.95 C 684.53 548.05, 684.10 545.41, 683.58 539.74 C 683.06 534.07, 682.98 530.35, 682.87 523.60 C 682.77 516.86, 682.91 512.64, 683.05 506.01 C 683.20 499.37, 683.47 495.78, 683.59 490.42 C 683.70 485.06, 684.40 482.43, 683.63 479.21 C 682.86 475.99, 681.51 474.87, 679.73 474.31 C 677.96 473.75, 676.49 474.14, 674.76 476.42 C 673.04 478.71, 672.85 480.94, 671.10 485.72 C 669.35 490.50, 668.29 493.83, 666.02 500.32 C 663.75 506.82, 662.33 511.09, 659.76 518.20 C 657.19 525.32, 655.76 529.58, 653.17 535.90 C 650.59 542.22, 649.21 545.37, 646.83 549.78 C 644.45 554.19, 642.88 555.58, 641.28 557.96 C 639.68 560.34, 639.53 560.97, 638.83 561.68 C 638.13 562.39, 638.25 562.48, 637.77 561.50 C 637.29 560.52, 636.98 559.74, 636.42 556.76 C 635.87 553.78, 635.23 551.67, 635.01 546.62 C 634.78 541.56, 634.91 538.23, 635.31 531.48 C 635.70 524.74, 636.18 520.52, 636.98 512.90 C 637.78 505.28, 638.36 500.69, 639.30 493.37 C 640.23 486.05, 640.71 482.15, 641.65 476.31 C 642.58 470.48, 643.42 467.94, 643.96 464.20 C 644.49 460.46, 644.54 459.45, 644.33 457.61 C 644.13 455.77, 643.73 455.62, 642.93 455.01 C 642.14 454.40, 641.32 454.20, 640.36 454.56" style="stroke: black; fill: black;"/><path d="M 752.95,452.48 C 751.94 453.27, 751.18 453.86, 750.79 456.58 C 750.39 459.30, 751.01 461.14, 750.96 466.09 C 750.91 471.05, 750.84 474.39, 750.52 481.35 C 750.20 488.31, 749.91 492.84, 749.36 500.88 C 748.81 508.93, 748.38 513.71, 747.77 521.58 C 747.16 529.44, 746.76 533.61, 746.29 540.20 C 745.82 546.80, 745.62 549.90, 745.42 554.54 C 745.22 559.19, 744.93 560.84, 745.29 563.41 C 745.65 565.97, 746.53 566.43, 747.22 567.36 C 747.92 568.30, 748.30 568.02, 748.75 568.07 C 749.20 568.12, 749.23 567.87, 749.47 567.61 C 749.72 567.34, 749.71 567.66, 749.98 566.73 C 750.24 565.81, 750.85 565.40, 750.81 562.96 C 750.77 560.52, 749.96 559.06, 749.75 554.54 C 749.55 550.03, 749.54 546.94, 749.79 540.40 C 750.04 533.85, 750.41 529.68, 751.00 521.83 C 751.60 513.98, 752.04 509.19, 752.77 501.16 C 753.50 493.12, 753.92 488.61, 754.65 481.66 C 755.37 474.72, 755.80 471.38, 756.38 466.44 C 756.97 461.49, 757.66 459.69, 757.55 456.93 C 757.44 454.17, 756.75 453.52, 755.83 452.63 C 754.91 451.74, 753.96 451.69, 752.95 452.48" style="stroke: black; fill: black;"/><path d="M 762.15,412.45 C 762.84 411.18, 763.31 409.87, 762.93 409.61 C 762.54 409.34, 761.03 410.44, 760.22 411.13 C 759.42 411.82, 758.98 412.54, 758.89 413.05 C 758.80 413.55, 759.82 413.20, 759.77 413.65 C 759.71 414.10, 759.14 414.50, 758.62 415.30 C 758.09 416.10, 756.99 417.51, 757.16 417.64 C 757.32 417.77, 758.45 416.99, 759.45 415.96 C 760.45 414.92, 761.45 413.72, 762.15 412.45" style="stroke: black; fill: black;"/><path d="M 838.32,403.49 C 838.71 402.23, 838.47 401.22, 837.69 399.64 C 836.92 398.06, 836.28 396.94, 834.45 395.58 C 832.61 394.23, 831.11 393.39, 828.53 392.88 C 825.95 392.38, 824.34 392.22, 821.53 393.06 C 818.73 393.89, 817.10 394.49, 814.49 397.06 C 811.88 399.62, 810.84 401.43, 808.47 405.88 C 806.10 410.34, 804.93 412.92, 802.63 419.33 C 800.34 425.75, 799.11 429.60, 796.99 437.96 C 794.87 446.32, 793.76 451.17, 792.03 461.14 C 790.29 471.11, 789.53 476.82, 788.31 487.80 C 787.10 498.78, 786.65 504.80, 785.95 516.03 C 785.26 527.26, 785.10 533.15, 784.82 543.94 C 784.55 554.74, 784.59 560.22, 784.56 570.00 C 784.54 579.78, 784.64 584.56, 784.71 592.85 C 784.78 601.14, 784.88 604.99, 784.92 611.47 C 784.96 617.95, 784.94 620.93, 784.91 625.23 C 784.88 629.54, 784.49 630.80, 784.76 633.00 C 785.02 635.19, 785.74 635.48, 786.23 636.20 C 786.72 636.91, 786.91 636.50, 787.19 636.57 C 787.47 636.65, 787.34 636.68, 787.63 636.59 C 787.92 636.51, 788.16 636.90, 788.62 636.15 C 789.08 635.40, 789.79 635.05, 789.91 632.83 C 790.04 630.62, 789.60 629.37, 789.24 625.07 C 788.89 620.78, 788.52 617.82, 788.14 611.36 C 787.76 604.91, 787.59 601.07, 787.34 592.80 C 787.09 584.52, 786.95 579.75, 786.88 569.99 C 786.82 560.23, 786.75 554.76, 787.00 544.00 C 787.25 533.23, 787.40 527.35, 788.11 516.16 C 788.83 504.98, 789.29 498.97, 790.58 488.06 C 791.86 477.15, 792.67 471.46, 794.55 461.60 C 796.42 451.73, 797.60 446.92, 799.94 438.76 C 802.29 430.59, 803.67 426.80, 806.27 420.77 C 808.88 414.74, 810.36 412.31, 812.96 408.62 C 815.56 404.94, 817.17 404.05, 819.27 402.34 C 821.38 400.63, 822.12 400.40, 823.49 400.07 C 824.86 399.74, 825.07 400.07, 826.13 400.69 C 827.18 401.30, 827.58 402.22, 828.77 403.15 C 829.97 404.07, 830.72 404.74, 832.11 405.30 C 833.51 405.86, 834.51 406.30, 835.75 405.93 C 836.99 405.57, 837.93 404.75, 838.32 403.49" style="stroke: black; fill: black;"/><path d="M 766.58,518.46 C 767.31 519.28, 767.75 519.54, 769.50 519.74 C 771.24 519.95, 772.45 520.27, 775.32 519.49 C 778.18 518.71, 779.96 517.51, 783.81 515.85 C 787.66 514.20, 790.07 513.32, 794.57 511.22 C 799.07 509.11, 801.63 507.95, 806.30 505.33 C 810.97 502.70, 813.41 501.23, 817.91 498.10 C 822.42 494.97, 824.72 493.30, 828.83 489.66 C 832.94 486.01, 834.94 484.04, 838.46 479.87 C 841.98 475.70, 843.56 473.47, 846.42 468.82 C 849.29 464.16, 850.58 461.61, 852.79 456.60 C 855.00 451.58, 855.87 448.82, 857.47 443.73 C 859.07 438.64, 859.64 435.91, 860.77 431.16 C 861.89 426.40, 862.30 423.95, 863.09 419.95 C 863.89 415.95, 864.88 414.01, 864.74 411.17 C 864.60 408.33, 863.73 406.74, 862.40 405.75 C 861.07 404.77, 859.30 404.49, 858.09 406.25 C 856.88 408.01, 856.94 409.73, 856.35 414.55 C 855.77 419.37, 855.79 422.79, 855.17 430.37 C 854.55 437.94, 854.10 442.96, 853.23 452.43 C 852.36 461.89, 851.75 467.58, 850.83 477.68 C 849.90 487.78, 849.40 493.31, 848.60 502.93 C 847.80 512.54, 847.41 517.38, 846.85 525.75 C 846.28 534.11, 846.09 538.09, 845.78 544.74 C 845.47 551.40, 845.45 554.48, 845.29 559.04 C 845.12 563.59, 844.69 565.07, 844.95 567.51 C 845.21 569.95, 846.04 570.37, 846.61 571.22 C 847.17 572.07, 847.43 571.68, 847.78 571.76 C 848.13 571.83, 848.07 571.77, 848.35 571.61 C 848.64 571.45, 848.82 571.83, 849.22 570.96 C 849.62 570.10, 850.29 569.67, 850.34 567.28 C 850.40 564.88, 849.77 563.48, 849.50 558.99 C 849.22 554.49, 848.97 551.44, 848.98 544.82 C 848.98 538.21, 849.11 534.24, 849.53 525.91 C 849.95 517.57, 850.32 512.73, 851.10 503.13 C 851.87 493.54, 852.37 488.01, 853.39 477.93 C 854.41 467.85, 855.04 462.16, 856.18 452.74 C 857.32 443.32, 857.97 438.31, 859.10 430.82 C 860.22 423.34, 861.04 420.01, 861.79 415.31 C 862.54 410.62, 863.21 409.19, 862.84 407.36 C 862.47 405.53, 860.98 405.49, 859.93 406.16 C 858.87 406.83, 858.03 408.11, 857.55 410.72 C 857.07 413.32, 857.83 415.29, 857.54 419.18 C 857.24 423.07, 856.93 425.51, 856.06 430.16 C 855.19 434.81, 854.64 437.49, 853.20 442.44 C 851.75 447.38, 850.91 450.04, 848.83 454.87 C 846.75 459.70, 845.51 462.13, 842.78 466.58 C 840.05 471.03, 838.56 473.14, 835.20 477.11 C 831.84 481.08, 829.93 482.96, 825.98 486.42 C 822.02 489.89, 819.80 491.50, 815.41 494.44 C 811.03 497.38, 808.64 498.79, 804.05 501.13 C 799.46 503.48, 796.95 504.53, 792.47 506.16 C 787.99 507.79, 785.58 508.39, 781.66 509.27 C 777.74 510.16, 775.63 509.81, 772.86 510.58 C 770.08 511.36, 769.20 512.16, 767.80 513.17 C 766.41 514.19, 766.13 514.60, 765.88 515.66 C 765.64 516.72, 765.86 517.64, 766.58 518.46" style="stroke: black; fill: black;"/><path d="M 834.34,506.64 C 835.12 507.62, 835.98 508.27, 838.15 508.45 C 840.33 508.64, 841.86 508.52, 845.21 507.56 C 848.55 506.60, 850.64 505.56, 854.87 503.66 C 859.10 501.75, 861.65 500.61, 866.34 498.04 C 871.04 495.46, 873.60 493.93, 878.36 490.80 C 883.11 487.66, 885.59 485.89, 890.11 482.35 C 894.62 478.80, 896.88 476.89, 900.92 473.07 C 904.97 469.26, 906.91 467.23, 910.32 463.25 C 913.72 459.28, 915.26 457.13, 917.97 453.20 C 920.68 449.28, 921.83 447.25, 923.88 443.63 C 925.92 440.00, 926.82 438.19, 928.20 435.08 C 929.58 431.97, 930.18 430.48, 930.78 428.09 C 931.37 425.70, 931.56 424.65, 931.16 423.13 C 930.77 421.62, 930.01 420.68, 928.82 420.51 C 927.62 420.34, 926.05 420.35, 925.19 422.28 C 924.34 424.21, 924.74 425.85, 924.56 430.17 C 924.38 434.48, 924.58 437.38, 924.29 443.86 C 924.00 450.33, 923.68 454.53, 923.12 462.52 C 922.57 470.51, 922.15 475.31, 921.50 483.81 C 920.86 492.32, 920.46 496.94, 919.91 505.03 C 919.35 513.12, 919.06 517.22, 918.72 524.27 C 918.39 531.32, 918.32 534.67, 918.25 540.29 C 918.17 545.92, 918.03 548.43, 918.33 552.39 C 918.63 556.35, 918.61 558.03, 919.73 560.10 C 920.85 562.18, 922.14 562.83, 923.92 562.77 C 925.70 562.71, 927.42 562.22, 928.61 559.81 C 929.80 557.40, 929.46 555.48, 929.86 550.73 C 930.25 545.98, 930.19 542.86, 930.59 536.07 C 931.00 529.29, 931.20 524.91, 931.88 516.82 C 932.56 508.74, 932.97 503.92, 933.99 495.65 C 935.00 487.38, 935.63 482.93, 936.95 475.46 C 938.27 468.00, 939.03 464.39, 940.58 458.34 C 942.14 452.28, 943.01 449.64, 944.73 445.19 C 946.45 440.75, 947.49 438.96, 949.17 436.10 C 950.86 433.24, 951.82 432.35, 953.16 430.88 C 954.50 429.41, 954.91 429.00, 955.89 428.74 C 956.87 428.48, 957.12 428.72, 958.07 429.56 C 959.02 430.41, 959.28 431.12, 960.64 432.97 C 962.00 434.81, 963.22 435.68, 964.85 438.79 C 966.48 441.89, 967.38 443.94, 968.79 448.49 C 970.20 453.05, 970.84 455.83, 971.88 461.55 C 972.92 467.27, 973.34 470.60, 973.99 477.10 C 974.64 483.59, 974.82 487.24, 975.14 494.03 C 975.47 500.82, 975.51 504.45, 975.62 511.05 C 975.72 517.65, 975.70 521.05, 975.68 527.03 C 975.65 533.00, 975.60 535.93, 975.48 540.92 C 975.37 545.92, 975.14 548.42, 975.09 552.00 C 975.05 555.58, 974.94 556.83, 975.26 558.84 C 975.58 560.84, 976.19 561.22, 976.69 562.02 C 977.20 562.82, 977.36 562.69, 977.77 562.85 C 978.18 563.01, 978.34 563.00, 978.74 562.81 C 979.13 562.63, 979.29 562.75, 979.75 561.92 C 980.20 561.09, 980.80 560.67, 981.00 558.66 C 981.19 556.65, 980.94 555.43, 980.72 551.87 C 980.51 548.31, 980.15 545.84, 979.91 540.87 C 979.67 535.89, 979.64 532.97, 979.50 526.99 C 979.36 521.01, 979.36 517.61, 979.21 510.98 C 979.06 504.36, 979.02 500.71, 978.74 493.87 C 978.47 487.02, 978.33 483.36, 977.82 476.76 C 977.32 470.16, 976.99 466.78, 976.21 460.87 C 975.43 454.95, 974.95 452.12, 973.91 447.18 C 972.87 442.23, 972.37 439.98, 971.01 436.13 C 969.65 432.29, 969.11 430.40, 967.11 427.93 C 965.11 425.46, 963.51 424.68, 961.00 423.78 C 958.49 422.87, 957.01 422.83, 954.57 423.42 C 952.13 424.00, 950.79 424.65, 948.78 426.70 C 946.76 428.75, 946.08 430.24, 944.50 433.67 C 942.91 437.10, 942.29 439.09, 940.84 443.86 C 939.40 448.63, 938.64 451.32, 937.25 457.54 C 935.86 463.75, 935.16 467.39, 933.90 474.94 C 932.63 482.48, 932.01 486.95, 930.93 495.26 C 929.85 503.57, 929.41 508.41, 928.50 516.49 C 927.58 524.57, 927.24 528.97, 926.34 535.66 C 925.45 542.36, 924.84 545.48, 924.02 549.96 C 923.21 554.44, 922.32 555.90, 922.25 558.06 C 922.18 560.22, 923.21 560.67, 923.66 560.78 C 924.11 560.90, 924.57 560.42, 924.50 558.63 C 924.43 556.85, 923.80 555.56, 923.31 551.87 C 922.82 548.19, 922.31 545.72, 922.04 540.23 C 921.76 534.73, 921.75 531.38, 921.92 524.38 C 922.09 517.38, 922.35 513.30, 922.88 505.23 C 923.40 497.17, 923.80 492.54, 924.54 484.06 C 925.28 475.58, 925.73 470.79, 926.58 462.83 C 927.42 454.87, 927.89 450.67, 928.77 444.26 C 929.66 437.85, 930.36 435.02, 930.99 430.77 C 931.61 426.52, 932.32 425.08, 931.91 423.02 C 931.50 420.96, 930.14 420.68, 928.93 420.46 C 927.71 420.24, 926.83 420.78, 925.83 421.91 C 924.83 423.04, 924.67 423.93, 923.94 426.10 C 923.21 428.27, 923.15 429.75, 922.18 432.76 C 921.20 435.78, 920.71 437.60, 919.07 441.16 C 917.43 444.72, 916.41 446.71, 913.98 450.56 C 911.55 454.41, 910.13 456.52, 906.93 460.41 C 903.74 464.30, 901.89 466.29, 898.01 470.01 C 894.12 473.73, 891.92 475.61, 887.51 479.02 C 883.10 482.43, 880.65 484.15, 875.96 487.06 C 871.27 489.96, 868.73 491.40, 864.08 493.56 C 859.42 495.72, 856.87 496.60, 852.69 497.86 C 848.51 499.11, 846.28 499.09, 843.18 499.83 C 840.07 500.56, 838.96 500.78, 837.18 501.53 C 835.39 502.27, 834.82 502.52, 834.25 503.54 C 833.68 504.56, 833.56 505.65, 834.34 506.64" style="stroke: black; fill: black;"/><path d="M 931.37,503.16 C 932.16 503.89, 932.60 504.12, 934.35 504.14 C 936.09 504.16, 937.32 504.33, 940.10 503.26 C 942.89 502.19, 944.50 500.76, 948.26 498.80 C 952.01 496.84, 954.43 495.67, 958.86 493.45 C 963.30 491.23, 965.82 489.94, 970.42 487.70 C 975.03 485.47, 977.52 484.22, 981.90 482.26 C 986.29 480.31, 988.52 479.32, 992.35 477.91 C 996.18 476.51, 998.19 476.09, 1001.06 475.23 C 1003.93 474.38, 1005.12 473.80, 1006.71 473.64 C 1008.29 473.48, 1008.27 473.22, 1008.98 474.42 C 1009.68 475.62, 1009.75 476.45, 1010.25 479.64 C 1010.75 482.83, 1011.25 485.22, 1011.47 490.36 C 1011.69 495.50, 1011.60 498.99, 1011.35 505.33 C 1011.10 511.68, 1010.74 515.58, 1010.23 522.10 C 1009.73 528.62, 1009.36 532.23, 1008.81 537.94 C 1008.27 543.65, 1007.85 546.42, 1007.52 550.66 C 1007.19 554.89, 1006.62 556.73, 1007.16 559.10 C 1007.70 561.48, 1008.77 562.30, 1010.23 562.54 C 1011.68 562.78, 1013.28 562.49, 1014.44 560.29 C 1015.60 558.09, 1015.28 556.17, 1016.03 551.56 C 1016.79 546.94, 1016.92 543.63, 1018.21 537.22 C 1019.49 530.82, 1020.36 526.56, 1022.47 519.53 C 1024.58 512.51, 1026.04 508.36, 1028.76 502.11 C 1031.49 495.85, 1033.15 492.71, 1036.10 488.27 C 1039.04 483.83, 1040.84 482.18, 1043.50 479.92 C 1046.17 477.66, 1047.49 477.40, 1049.43 476.95 C 1051.37 476.50, 1051.73 476.64, 1053.19 477.68 C 1054.66 478.72, 1055.33 479.35, 1056.77 482.16 C 1058.20 484.96, 1059.21 487.01, 1060.37 491.71 C 1061.54 496.40, 1061.98 499.68, 1062.58 505.64 C 1063.18 511.61, 1063.25 515.29, 1063.39 521.51 C 1063.53 527.72, 1063.27 531.19, 1063.28 536.72 C 1063.28 542.25, 1062.99 545.00, 1063.42 549.15 C 1063.84 553.30, 1064.44 555.88, 1065.41 557.46 C 1066.37 559.04, 1067.75 558.77, 1068.23 557.05 C 1068.72 555.33, 1067.96 552.93, 1067.83 548.86 C 1067.70 544.78, 1067.66 542.18, 1067.60 536.69 C 1067.55 531.21, 1067.66 527.71, 1067.55 521.42 C 1067.44 515.14, 1067.46 511.44, 1067.05 505.27 C 1066.64 499.11, 1066.46 495.79, 1065.50 490.60 C 1064.54 485.42, 1064.09 482.92, 1062.24 479.34 C 1060.38 475.75, 1059.02 474.24, 1056.21 472.69 C 1053.40 471.14, 1051.37 470.85, 1048.19 471.59 C 1045.01 472.33, 1043.40 473.47, 1040.32 476.38 C 1037.24 479.29, 1035.74 481.29, 1032.77 486.15 C 1029.79 491.01, 1028.22 494.22, 1025.44 500.67 C 1022.67 507.12, 1021.21 511.31, 1018.88 518.41 C 1016.55 525.51, 1015.54 529.78, 1013.78 536.17 C 1012.03 542.56, 1011.20 545.84, 1010.12 550.36 C 1009.03 554.89, 1008.26 556.55, 1008.34 558.81 C 1008.42 561.07, 1009.68 561.64, 1010.53 561.67 C 1011.38 561.69, 1012.19 561.09, 1012.60 558.94 C 1013.00 556.79, 1012.49 555.04, 1012.56 550.90 C 1012.64 546.76, 1012.64 543.95, 1012.97 538.26 C 1013.30 532.56, 1013.67 528.96, 1014.21 522.42 C 1014.76 515.89, 1015.20 512.01, 1015.70 505.59 C 1016.19 499.17, 1016.53 495.74, 1016.71 490.34 C 1016.88 484.94, 1017.24 482.47, 1016.57 478.60 C 1015.90 474.72, 1015.29 473.12, 1013.37 470.97 C 1011.45 468.83, 1009.80 468.24, 1006.97 467.88 C 1004.15 467.51, 1002.56 468.13, 999.23 469.14 C 995.90 470.15, 994.20 471.20, 990.32 472.92 C 986.45 474.65, 984.26 475.72, 979.85 477.78 C 975.45 479.84, 972.96 481.09, 968.31 483.22 C 963.66 485.36, 961.13 486.59, 956.59 488.44 C 952.05 490.29, 949.57 491.21, 945.61 492.47 C 941.65 493.73, 939.52 493.68, 936.80 494.75 C 934.08 495.82, 933.28 496.67, 932.00 497.82 C 930.72 498.97, 930.51 499.41, 930.39 500.48 C 930.26 501.55, 930.58 502.43, 931.37 503.16" style="stroke: black; fill: black;"/><path d="M 1132.49,491.43 C 1133.59 490.63, 1134.17 489.55, 1134.38 487.76 C 1134.59 485.97, 1134.56 484.52, 1133.55 482.48 C 1132.54 480.43, 1131.53 478.94, 1129.34 477.53 C 1127.15 476.12, 1125.52 475.36, 1122.61 475.44 C 1119.70 475.51, 1117.95 475.86, 1114.78 477.90 C 1111.61 479.94, 1110.10 481.56, 1106.75 485.63 C 1103.41 489.70, 1101.45 492.36, 1098.05 498.24 C 1094.64 504.12, 1092.69 507.99, 1089.73 515.02 C 1086.78 522.04, 1085.27 526.39, 1083.26 533.36 C 1081.26 540.33, 1080.52 544.10, 1079.71 549.86 C 1078.90 555.62, 1078.60 558.21, 1079.20 562.17 C 1079.79 566.13, 1080.62 567.72, 1082.70 569.67 C 1084.77 571.63, 1086.66 572.23, 1089.55 571.94 C 1092.45 571.64, 1094.27 570.80, 1097.17 568.21 C 1100.06 565.62, 1101.22 563.55, 1104.03 559.00 C 1106.83 554.45, 1108.29 551.51, 1111.18 545.47 C 1114.07 539.43, 1115.67 535.54, 1118.47 528.79 C 1121.27 522.05, 1122.74 517.91, 1125.19 511.73 C 1127.63 505.55, 1129.28 502.06, 1130.69 497.88 C 1132.11 493.70, 1132.53 491.91, 1132.28 490.85 C 1132.03 489.78, 1130.21 490.01, 1129.46 492.54 C 1128.72 495.07, 1129.02 497.88, 1128.55 503.47 C 1128.09 509.07, 1127.66 513.41, 1127.15 520.52 C 1126.64 527.64, 1126.32 532.10, 1126.01 539.06 C 1125.70 546.02, 1125.52 549.64, 1125.60 555.33 C 1125.67 561.02, 1125.63 563.51, 1126.38 567.50 C 1127.14 571.50, 1127.63 573.19, 1129.37 575.30 C 1131.10 577.42, 1132.84 577.77, 1135.07 578.08 C 1137.30 578.39, 1138.99 577.85, 1140.51 576.83 C 1142.03 575.82, 1142.77 574.29, 1142.66 572.98 C 1142.56 571.68, 1141.11 570.60, 1139.99 570.31 C 1138.87 570.02, 1138.00 570.96, 1137.07 571.53 C 1136.14 572.10, 1136.06 573.01, 1135.33 573.15 C 1134.61 573.30, 1134.26 573.60, 1133.44 572.27 C 1132.63 570.95, 1132.00 569.93, 1131.24 566.51 C 1130.48 563.10, 1129.93 560.65, 1129.65 555.20 C 1129.37 549.75, 1129.47 546.11, 1129.84 539.25 C 1130.22 532.39, 1130.77 527.97, 1131.52 520.91 C 1132.27 513.85, 1132.96 509.61, 1133.59 503.97 C 1134.22 498.32, 1135.28 495.58, 1134.69 492.68 C 1134.09 489.79, 1132.28 488.80, 1130.61 489.50 C 1128.94 490.20, 1128.14 492.02, 1126.32 496.19 C 1124.51 500.36, 1123.81 504.12, 1121.55 510.35 C 1119.29 516.58, 1117.85 520.70, 1115.03 527.35 C 1112.22 534.00, 1110.53 537.84, 1107.47 543.60 C 1104.41 549.35, 1102.68 552.15, 1099.74 556.12 C 1096.81 560.08, 1095.07 561.32, 1092.81 563.42 C 1090.55 565.52, 1089.81 566.01, 1088.44 566.61 C 1087.06 567.22, 1086.85 567.47, 1085.96 566.44 C 1085.07 565.41, 1084.46 564.68, 1083.99 561.46 C 1083.53 558.24, 1083.09 555.76, 1083.62 550.33 C 1084.16 544.90, 1084.79 541.10, 1086.68 534.33 C 1088.56 527.55, 1090.08 523.23, 1093.06 516.45 C 1096.04 509.66, 1098.07 505.85, 1101.58 500.40 C 1105.10 494.95, 1107.28 492.47, 1110.65 489.18 C 1114.01 485.90, 1115.96 485.31, 1118.42 483.98 C 1120.88 482.65, 1121.70 482.64, 1122.93 482.52 C 1124.16 482.41, 1124.14 482.69, 1124.58 483.41 C 1125.02 484.13, 1124.75 484.94, 1125.12 486.10 C 1125.49 487.27, 1125.68 488.09, 1126.43 489.22 C 1127.19 490.35, 1127.67 491.31, 1128.88 491.75 C 1130.09 492.19, 1131.39 492.23, 1132.49 491.43" style="stroke: black; fill: black;"/><path d="M 1175.91,424.03 C 1175.12 425.87, 1175.52 428.33, 1175.32 433.28 C 1175.11 438.23, 1175.10 441.45, 1174.87 448.78 C 1174.64 456.11, 1174.59 461.06, 1174.16 469.93 C 1173.73 478.80, 1173.29 483.89, 1172.72 493.11 C 1172.15 502.33, 1171.81 507.32, 1171.31 516.04 C 1170.81 524.75, 1170.54 529.19, 1170.23 536.71 C 1169.92 544.23, 1169.79 547.66, 1169.77 553.62 C 1169.74 559.58, 1169.76 562.15, 1170.11 566.50 C 1170.46 570.85, 1170.41 572.69, 1171.52 575.37 C 1172.64 578.06, 1173.71 578.95, 1175.70 579.93 C 1177.68 580.90, 1179.21 581.14, 1181.45 580.24 C 1183.70 579.34, 1185.04 578.38, 1186.91 575.43 C 1188.79 572.48, 1189.08 570.25, 1190.83 565.50 C 1192.58 560.75, 1193.54 557.78, 1195.66 551.68 C 1197.77 545.59, 1199.06 541.78, 1201.41 535.01 C 1203.76 528.25, 1205.08 524.34, 1207.41 517.85 C 1209.74 511.37, 1210.96 507.95, 1213.05 502.60 C 1215.15 497.24, 1216.36 494.79, 1217.88 491.07 C 1219.39 487.36, 1220.31 486.02, 1220.62 484.03 C 1220.92 482.04, 1220.28 481.18, 1219.41 481.12 C 1218.54 481.07, 1217.00 481.44, 1216.27 483.77 C 1215.54 486.10, 1215.93 488.23, 1215.76 492.78 C 1215.60 497.32, 1215.59 500.56, 1215.45 506.50 C 1215.31 512.45, 1215.09 516.23, 1215.06 522.51 C 1215.04 528.80, 1214.99 532.29, 1215.32 537.92 C 1215.66 543.55, 1215.90 546.21, 1216.72 550.66 C 1217.55 555.10, 1217.88 557.10, 1219.46 560.15 C 1221.04 563.20, 1222.21 564.44, 1224.63 565.90 C 1227.05 567.36, 1228.73 567.80, 1231.57 567.43 C 1234.41 567.06, 1236.19 566.42, 1238.83 564.05 C 1241.46 561.67, 1242.36 559.67, 1244.74 555.54 C 1247.13 551.42, 1248.32 548.80, 1250.76 543.41 C 1253.21 538.02, 1254.52 534.60, 1256.97 528.58 C 1259.42 522.56, 1260.73 518.91, 1263.02 513.33 C 1265.31 507.75, 1266.82 504.59, 1268.40 500.66 C 1269.98 496.74, 1270.70 495.06, 1270.92 493.68 C 1271.14 492.30, 1269.76 492.04, 1269.48 493.77 C 1269.20 495.50, 1269.52 497.32, 1269.50 502.33 C 1269.48 507.34, 1269.64 511.11, 1269.38 518.83 C 1269.12 526.54, 1268.90 531.45, 1268.22 540.91 C 1267.54 550.38, 1267.04 555.86, 1265.98 566.16 C 1264.91 576.47, 1264.26 582.10, 1262.89 592.45 C 1261.52 602.80, 1260.84 608.19, 1259.14 617.91 C 1257.45 627.63, 1256.47 632.52, 1254.41 641.04 C 1252.36 649.57, 1251.16 653.68, 1248.86 660.55 C 1246.55 667.41, 1245.34 670.52, 1242.89 675.37 C 1240.44 680.23, 1239.00 682.15, 1236.60 684.83 C 1234.21 687.52, 1232.94 688.02, 1230.93 688.80 C 1228.92 689.58, 1228.46 689.45, 1226.56 688.71 C 1224.66 687.97, 1223.62 687.40, 1221.44 685.10 C 1219.27 682.81, 1217.82 681.22, 1215.71 677.22 C 1213.60 673.23, 1212.39 670.62, 1210.90 665.14 C 1209.42 659.66, 1208.76 656.35, 1208.29 649.82 C 1207.82 643.29, 1207.80 639.58, 1208.56 632.48 C 1209.33 625.39, 1210.08 621.58, 1212.11 614.35 C 1214.15 607.13, 1215.57 603.42, 1218.73 596.35 C 1221.89 589.28, 1223.86 585.73, 1227.91 578.99 C 1231.97 572.24, 1234.33 568.92, 1239.03 562.61 C 1243.73 556.31, 1246.37 553.25, 1251.40 547.47 C 1256.43 541.68, 1259.13 538.93, 1264.18 533.68 C 1269.23 528.44, 1271.85 525.97, 1276.66 521.24 C 1281.47 516.52, 1283.86 514.30, 1288.22 510.05 C 1292.58 505.79, 1294.69 503.80, 1298.46 499.97 C 1302.23 496.13, 1303.96 494.35, 1307.08 490.88 C 1310.19 487.42, 1311.56 485.77, 1314.02 482.65 C 1316.49 479.52, 1317.70 478.08, 1319.41 475.26 C 1321.12 472.43, 1321.89 471.01, 1322.57 468.52 C 1323.26 466.03, 1323.36 464.14, 1322.83 462.79 C 1322.30 461.44, 1321.15 461.13, 1319.93 461.78 C 1318.70 462.43, 1317.93 463.99, 1316.70 466.04 C 1315.46 468.10, 1315.16 469.36, 1313.75 472.05 C 1312.34 474.74, 1311.67 476.33, 1309.63 479.50 C 1307.60 482.67, 1306.38 484.36, 1303.56 487.90 C 1300.73 491.44, 1299.11 493.27, 1295.53 497.19 C 1291.95 501.10, 1289.91 503.15, 1285.66 507.49 C 1281.42 511.83, 1279.07 514.09, 1274.32 518.90 C 1269.57 523.71, 1266.97 526.21, 1261.93 531.53 C 1256.89 536.86, 1254.19 539.65, 1249.14 545.51 C 1244.09 551.38, 1241.42 554.47, 1236.67 560.86 C 1231.92 567.25, 1229.53 570.62, 1225.40 577.47 C 1221.26 584.32, 1219.25 587.92, 1215.99 595.12 C 1212.73 602.32, 1211.25 606.09, 1209.10 613.49 C 1206.94 620.88, 1206.13 624.79, 1205.22 632.09 C 1204.30 639.40, 1204.25 643.21, 1204.54 650.03 C 1204.83 656.85, 1205.36 660.28, 1206.65 666.17 C 1207.93 672.07, 1208.89 674.90, 1210.95 679.52 C 1213.00 684.15, 1214.17 686.28, 1216.91 689.29 C 1219.65 692.31, 1221.40 693.65, 1224.64 694.58 C 1227.88 695.52, 1230.02 695.36, 1233.11 693.99 C 1236.21 692.61, 1237.53 691.13, 1240.13 687.71 C 1242.73 684.30, 1243.82 682.15, 1246.13 676.89 C 1248.43 671.64, 1249.49 668.50, 1251.65 661.44 C 1253.80 654.39, 1254.93 650.25, 1256.90 641.62 C 1258.86 633.00, 1259.80 628.09, 1261.46 618.31 C 1263.12 608.54, 1263.80 603.13, 1265.19 592.75 C 1266.59 582.38, 1267.25 576.75, 1268.43 566.43 C 1269.61 556.11, 1270.13 550.64, 1271.08 541.16 C 1272.03 531.69, 1272.51 526.81, 1273.18 519.06 C 1273.86 511.30, 1274.39 507.63, 1274.46 502.37 C 1274.53 497.12, 1274.78 494.97, 1273.54 492.78 C 1272.30 490.59, 1270.23 490.24, 1268.27 491.41 C 1266.30 492.59, 1265.54 494.58, 1263.70 498.66 C 1261.86 502.73, 1261.17 506.11, 1259.05 511.78 C 1256.93 517.44, 1255.62 521.07, 1253.12 526.98 C 1250.62 532.90, 1249.19 536.28, 1246.55 541.37 C 1243.91 546.46, 1242.42 548.94, 1239.90 552.43 C 1237.39 555.91, 1235.88 556.97, 1233.97 558.81 C 1232.06 560.65, 1231.62 561.12, 1230.36 561.61 C 1229.09 562.10, 1228.77 562.09, 1227.65 561.25 C 1226.53 560.40, 1225.99 559.71, 1224.75 557.38 C 1223.51 555.05, 1222.49 553.56, 1221.47 549.61 C 1220.45 545.66, 1220.05 543.04, 1219.63 537.63 C 1219.22 532.22, 1219.22 528.74, 1219.39 522.58 C 1219.55 516.41, 1219.90 512.66, 1220.46 506.80 C 1221.02 500.94, 1221.63 497.81, 1222.17 493.28 C 1222.72 488.75, 1223.65 486.76, 1223.21 484.17 C 1222.76 481.57, 1221.39 480.73, 1219.96 480.30 C 1218.52 479.88, 1217.39 480.23, 1216.04 482.03 C 1214.69 483.83, 1214.54 485.46, 1213.20 489.30 C 1211.85 493.15, 1211.16 495.77, 1209.32 501.24 C 1207.48 506.71, 1206.27 510.14, 1203.99 516.64 C 1201.70 523.14, 1200.37 527.05, 1197.89 533.75 C 1195.42 540.45, 1194.05 544.25, 1191.61 550.15 C 1189.18 556.05, 1187.93 558.98, 1185.71 563.25 C 1183.50 567.53, 1181.99 569.02, 1180.53 571.54 C 1179.07 574.05, 1178.97 574.82, 1178.43 575.83 C 1177.90 576.83, 1178.15 577.04, 1177.85 576.55 C 1177.55 576.06, 1177.57 575.52, 1176.92 573.39 C 1176.28 571.27, 1175.34 569.89, 1174.62 565.92 C 1173.89 561.95, 1173.57 559.37, 1173.29 553.54 C 1173.01 547.72, 1173.05 544.27, 1173.21 536.80 C 1173.36 529.33, 1173.59 524.89, 1174.04 516.19 C 1174.50 507.48, 1174.84 502.51, 1175.49 493.29 C 1176.13 484.08, 1176.66 478.98, 1177.27 470.11 C 1177.87 461.24, 1178.08 456.29, 1178.52 448.95 C 1178.96 441.61, 1179.32 438.40, 1179.46 433.43 C 1179.61 428.46, 1179.97 425.98, 1179.26 424.10 C 1178.55 422.22, 1176.70 422.19, 1175.91 424.03" style="stroke: black; fill: black;"/><path d="M 1346.02,392.13 C 1345.01 392.77, 1344.29 393.20, 1343.82 395.58 C 1343.35 397.95, 1343.74 399.50, 1343.68 404.02 C 1343.61 408.54, 1343.74 411.47, 1343.50 418.17 C 1343.27 424.87, 1343.10 429.09, 1342.50 437.52 C 1341.90 445.94, 1341.39 450.90, 1340.49 460.28 C 1339.58 469.65, 1338.98 474.86, 1337.97 484.38 C 1336.97 493.90, 1336.40 498.95, 1335.46 507.89 C 1334.51 516.83, 1334.01 521.35, 1333.23 529.09 C 1332.46 536.84, 1332.12 540.49, 1331.58 546.62 C 1331.04 552.76, 1330.85 555.61, 1330.55 559.78 C 1330.26 563.94, 1329.90 565.24, 1330.10 567.43 C 1330.31 569.62, 1331.10 569.99, 1331.58 570.72 C 1332.07 571.44, 1332.26 570.97, 1332.53 571.06 C 1332.80 571.14, 1332.63 571.21, 1332.94 571.15 C 1333.24 571.08, 1333.55 571.48, 1334.04 570.74 C 1334.54 570.00, 1335.21 569.61, 1335.42 567.44 C 1335.64 565.27, 1335.19 564.02, 1335.11 559.89 C 1335.03 555.77, 1334.83 552.94, 1335.02 546.83 C 1335.22 540.72, 1335.49 537.08, 1336.10 529.35 C 1336.70 521.61, 1337.17 517.10, 1338.06 508.16 C 1338.95 499.22, 1339.50 494.17, 1340.53 484.65 C 1341.56 475.13, 1342.19 469.93, 1343.22 460.56 C 1344.26 451.19, 1344.82 446.22, 1345.71 437.80 C 1346.60 429.39, 1346.93 425.16, 1347.68 418.48 C 1348.44 411.81, 1348.96 408.90, 1349.51 404.41 C 1350.05 399.92, 1350.56 398.44, 1350.42 396.03 C 1350.29 393.62, 1349.71 393.15, 1348.83 392.36 C 1347.94 391.58, 1347.02 391.49, 1346.02 392.13" style="stroke: black; fill: black;"/><path d="M 1313.42,496.08 C 1314.20 496.94, 1314.85 497.34, 1316.82 497.46 C 1318.80 497.59, 1320.13 497.56, 1323.29 496.71 C 1326.46 495.86, 1328.48 494.81, 1332.64 493.22 C 1336.81 491.63, 1339.39 490.67, 1344.12 488.77 C 1348.85 486.86, 1351.54 485.73, 1356.31 483.70 C 1361.08 481.67, 1363.59 480.49, 1367.95 478.62 C 1372.31 476.75, 1374.48 475.75, 1378.11 474.35 C 1381.75 472.96, 1383.68 472.69, 1386.13 471.65 C 1388.58 470.62, 1389.43 469.60, 1390.38 469.19 C 1391.33 468.79, 1390.83 468.42, 1390.89 469.61 C 1390.95 470.81, 1390.77 471.75, 1390.66 475.17 C 1390.56 478.59, 1390.76 481.17, 1390.36 486.71 C 1389.96 492.25, 1389.46 496.00, 1388.67 502.85 C 1387.87 509.69, 1387.28 513.95, 1386.38 520.93 C 1385.49 527.91, 1384.96 531.67, 1384.20 537.74 C 1383.43 543.80, 1383.02 546.69, 1382.57 551.25 C 1382.12 555.81, 1381.64 557.83, 1381.96 560.54 C 1382.27 563.25, 1383.19 563.78, 1384.14 564.82 C 1385.09 565.86, 1385.91 565.78, 1386.69 565.75 C 1387.47 565.72, 1388.10 565.10, 1388.03 564.68 C 1387.96 564.26, 1386.63 563.74, 1386.36 563.65 C 1386.08 563.57, 1386.45 564.28, 1386.67 564.25 C 1386.90 564.23, 1387.25 564.37, 1387.49 563.54 C 1387.73 562.72, 1387.91 562.53, 1387.85 560.12 C 1387.80 557.71, 1387.19 555.90, 1387.23 551.51 C 1387.27 547.12, 1387.49 544.18, 1388.06 538.16 C 1388.63 532.15, 1389.16 528.37, 1390.09 521.42 C 1391.03 514.47, 1391.67 510.23, 1392.74 503.40 C 1393.80 496.58, 1394.53 492.92, 1395.42 487.30 C 1396.31 481.68, 1397.15 479.24, 1397.20 475.31 C 1397.25 471.37, 1397.01 469.83, 1395.67 467.64 C 1394.33 465.45, 1392.89 464.86, 1390.50 464.36 C 1388.11 463.87, 1386.65 464.20, 1383.72 465.17 C 1380.78 466.14, 1379.41 467.44, 1375.85 469.22 C 1372.29 471.00, 1370.20 472.08, 1365.91 474.07 C 1361.63 476.06, 1359.15 477.25, 1354.42 479.19 C 1349.70 481.13, 1347.02 482.21, 1342.29 483.78 C 1337.56 485.34, 1334.97 486.07, 1330.76 487.03 C 1326.55 487.99, 1324.31 487.84, 1321.23 488.58 C 1318.15 489.31, 1317.03 489.79, 1315.37 490.70 C 1313.70 491.61, 1313.28 492.06, 1312.89 493.14 C 1312.50 494.21, 1312.63 495.21, 1313.42 496.08" style="stroke: black; fill: black;"/><path d="M 1402.56,421.47 C 1403.51 420.67, 1403.76 420.02, 1403.49 419.80 C 1403.23 419.59, 1402.24 419.92, 1401.22 420.38 C 1400.19 420.84, 1399.26 421.42, 1398.38 422.12 C 1397.50 422.81, 1396.75 423.53, 1396.82 423.86 C 1396.89 424.20, 1397.57 424.27, 1398.72 423.79 C 1399.87 423.31, 1401.60 422.26, 1402.56 421.47" style="stroke: black; fill: black;"/><path d="M 1473.34,463.27 C 1473.07 462.00, 1472.45 461.12, 1470.70 460.08 C 1468.95 459.03, 1467.51 458.11, 1464.58 458.04 C 1461.64 457.97, 1459.58 458.27, 1456.03 459.73 C 1452.49 461.18, 1450.70 462.30, 1446.85 465.32 C 1443.01 468.34, 1440.84 470.15, 1436.81 474.82 C 1432.77 479.49, 1430.46 482.45, 1426.67 488.67 C 1422.89 494.90, 1420.81 498.79, 1417.86 505.94 C 1414.92 513.09, 1413.52 517.33, 1411.95 524.45 C 1410.38 531.56, 1409.89 535.34, 1410.02 541.52 C 1410.15 547.70, 1410.69 550.66, 1412.60 555.34 C 1414.51 560.02, 1416.06 562.07, 1419.57 564.91 C 1423.08 567.74, 1425.49 568.62, 1430.15 569.54 C 1434.80 570.45, 1437.55 570.33, 1442.83 569.48 C 1448.12 568.62, 1451.47 567.37, 1456.58 565.26 C 1461.69 563.16, 1464.54 561.42, 1468.39 558.94 C 1472.24 556.47, 1474.70 554.61, 1475.82 552.88 C 1476.95 551.14, 1475.99 549.86, 1474.01 550.25 C 1472.04 550.65, 1469.82 552.74, 1465.96 554.84 C 1462.10 556.94, 1459.49 558.76, 1454.71 560.74 C 1449.93 562.72, 1446.78 563.93, 1442.04 564.75 C 1437.31 565.58, 1434.95 565.54, 1431.02 564.85 C 1427.09 564.17, 1425.31 563.55, 1422.38 561.33 C 1419.44 559.11, 1418.10 557.74, 1416.36 553.76 C 1414.61 549.77, 1413.87 547.13, 1413.65 541.41 C 1413.42 535.69, 1413.78 532.00, 1415.24 525.16 C 1416.71 518.33, 1418.07 514.14, 1420.98 507.24 C 1423.89 500.33, 1425.98 496.53, 1429.79 490.63 C 1433.59 484.73, 1435.97 481.91, 1440.00 477.74 C 1444.04 473.58, 1446.32 472.00, 1449.97 469.80 C 1453.62 467.60, 1455.38 467.32, 1458.25 466.74 C 1461.12 466.17, 1462.23 466.86, 1464.32 466.94 C 1466.41 467.01, 1467.16 467.24, 1468.71 467.13 C 1470.26 467.02, 1471.15 467.15, 1472.08 466.38 C 1473.00 465.61, 1473.62 464.53, 1473.34 463.27" style="stroke: black; fill: black;"/><path d="M 1532.27,460.78 C 1531.93 459.41, 1531.12 458.21, 1529.06 457.03 C 1527.01 455.84, 1525.29 454.96, 1522.01 454.85 C 1518.72 454.74, 1516.41 455.20, 1512.64 456.49 C 1508.87 457.77, 1506.83 458.90, 1503.16 461.29 C 1499.48 463.68, 1497.47 465.26, 1494.27 468.44 C 1491.07 471.61, 1489.33 473.49, 1487.15 477.15 C 1484.97 480.82, 1483.93 482.92, 1483.36 486.78 C 1482.79 490.64, 1483.01 492.81, 1484.31 496.44 C 1485.61 500.06, 1487.04 501.71, 1489.85 504.90 C 1492.66 508.09, 1494.71 509.45, 1498.35 512.40 C 1502.00 515.36, 1504.30 516.76, 1508.07 519.68 C 1511.83 522.60, 1513.97 524.08, 1517.17 526.99 C 1520.37 529.89, 1521.94 531.43, 1524.07 534.22 C 1526.19 537.02, 1526.93 538.47, 1527.79 540.96 C 1528.66 543.45, 1528.72 544.42, 1528.41 546.66 C 1528.10 548.91, 1527.70 549.90, 1526.23 552.17 C 1524.75 554.44, 1523.69 555.75, 1521.04 558.00 C 1518.39 560.25, 1516.59 561.50, 1512.98 563.43 C 1509.38 565.36, 1507.10 566.32, 1503.02 567.65 C 1498.94 568.98, 1496.56 569.49, 1492.58 570.08 C 1488.60 570.68, 1486.44 570.68, 1483.12 570.61 C 1479.81 570.53, 1478.52 570.06, 1476.03 569.68 C 1473.54 569.31, 1472.01 568.39, 1470.66 568.74 C 1469.31 569.09, 1468.54 570.01, 1469.27 571.43 C 1470.01 572.85, 1471.57 574.77, 1474.33 575.85 C 1477.09 576.93, 1479.25 576.85, 1483.09 576.81 C 1486.92 576.77, 1489.17 576.44, 1493.50 575.66 C 1497.83 574.89, 1500.29 574.35, 1504.72 572.94 C 1509.15 571.54, 1511.58 570.64, 1515.65 568.63 C 1519.72 566.63, 1521.81 565.48, 1525.05 562.92 C 1528.30 560.36, 1529.88 558.94, 1531.89 555.84 C 1533.89 552.75, 1534.73 550.87, 1535.09 547.46 C 1535.45 544.04, 1534.99 542.12, 1533.68 538.76 C 1532.37 535.41, 1531.13 533.82, 1528.54 530.68 C 1525.95 527.53, 1524.16 526.05, 1520.72 523.02 C 1517.28 519.99, 1515.09 518.49, 1511.32 515.51 C 1507.55 512.54, 1505.29 511.04, 1501.87 508.16 C 1498.45 505.27, 1496.61 503.83, 1494.23 501.08 C 1491.85 498.32, 1490.93 497.07, 1489.95 494.39 C 1488.97 491.72, 1488.86 490.53, 1489.32 487.69 C 1489.77 484.86, 1490.43 483.21, 1492.25 480.21 C 1494.07 477.21, 1495.57 475.40, 1498.41 472.69 C 1501.25 469.99, 1503.21 468.50, 1506.45 466.69 C 1509.68 464.87, 1511.54 464.19, 1514.59 463.61 C 1517.64 463.03, 1519.23 463.70, 1521.69 463.79 C 1524.14 463.89, 1525.06 464.09, 1526.88 464.10 C 1528.69 464.11, 1529.67 464.52, 1530.75 463.85 C 1531.83 463.19, 1532.61 462.14, 1532.27 460.78" style="stroke: black; fill: black;"/></svg>